<?xml version="1.0" encoding="utf-8"?>
<!-- Generator: Adobe Illustrator 26.5.0, SVG Export Plug-In . SVG Version: 6.00 Build 0)  -->
<svg version="1.1" id="Layer_1" xmlns="http://www.w3.org/2000/svg" xmlns:xlink="http://www.w3.org/1999/xlink" x="0px" y="0px" viewBox="0 0 200 45.3" style="enable-background: new 0 0 200 45.3" xml:space="preserve">
<style>.st0 {
  fill: #fff;
}
</style>
<g id="Group_30" transform="translate(-0.001 522.927)">
	<path id="Path_38" class="st0" d="M193-489.8c-3.1,0-5.6,2.5-5.6,5.6c0,3.1,2.5,5.6,5.6,5.6s5.6-2.5,5.6-5.6
		C198.6-487.3,196.1-489.8,193-489.8"></path>
	<path id="Path_39" class="st0" d="M174.5-507.2v-1.9h9v30h-9v-1.9c-7.2,4.9-17.1,3.1-22-4.2c-4.9-7.2-3.1-17.1,4.2-22
		C162-510.9,169.1-510.9,174.5-507.2L174.5-507.2z M166.3-486.5c4.3-0.2,7.5-3.9,7.3-8.1c-0.2-4.3-3.9-7.5-8.1-7.3
		c-4.1,0.2-7.3,3.6-7.3,7.7C158.3-489.8,161.9-486.3,166.3-486.5z"></path>
	<path id="Path_40" class="st0" d="M133.8-510c-3.6-0.2-7,1.4-9.2,4.2v-3.4h-8.9v30h9v-15.8c-0.3-3.5,2.3-6.5,5.8-6.8
		c0.3,0,0.6,0,0.9,0c3.9,0,6.2,2.4,6.2,6.7v15.8h9v-19.1c-0.1-6.6-5.4-11.8-12-11.8C134.3-510,134.1-510,133.8-510"></path>
	<path id="Path_41" class="st0" d="M102.6-505.3v-3.9h-9.2v30h9.2v-14c0-4.7,5.1-7.3,8.7-7.3h0.1v-8.7
		C108.1-509.2,104.8-507.8,102.6-505.3"></path>
	<path id="Path_42" class="st0" d="M79.8-507.2v-1.9h9v30h-9v-1.9c-7.2,4.9-17.1,3.1-22-4.2c-4.9-7.2-3.1-17.1,4.2-22
		C67.3-510.9,74.4-510.9,79.8-507.2L79.8-507.2z M71.6-486.5c4.3-0.2,7.5-3.9,7.3-8.1s-3.9-7.5-8.1-7.3c-4.1,0.2-7.3,3.6-7.3,7.7
		C63.6-489.8,67.2-486.3,71.6-486.5L71.6-486.5z"></path>
	<path id="Path_43" class="st0" d="M42-479.2h9.4v-43.4H42V-479.2z"></path>
	<path id="Path_44" class="st0" d="M35.5-522.5h-9.7c0,7.9-3.7,15.4-10.1,20.1l-3.9,2.9l14.9,20.4h12.3l-13.8-18.7
		C31.9-504.4,35.5-513.3,35.5-522.5"></path>
	<path id="Path_45" class="st0" d="M0.7-479.2h9.9v-43.4H0.7V-479.2z"></path>
</g>
</svg>
