<svg width="83" height="101" viewBox="0 0 83 101" fill="none" xmlns="http://www.w3.org/2000/svg">
<path fill-rule="evenodd" clip-rule="evenodd" d="M5.40205 51.2949C23.1122 59.0665 35.5 76.819 35.5 97.4848C35.5 99.4262 33.933 101 32.0001 101C30.0671 101 28.5002 99.4262 28.5002 97.4848C28.5002 79.7127 17.8521 64.4303 2.59954 57.7372C0.828273 56.9599 0.0197462 54.8877 0.793639 53.1087C1.56753 51.3297 3.63079 50.5177 5.40205 51.2949Z" fill="black"></path>
<path fill-rule="evenodd" clip-rule="evenodd" d="M5.02714 31.1471C33.6339 39.6534 54.5 66.128 54.5 97.4813C54.5 99.4246 52.9233 101 50.9783 101C49.0333 101 47.4566 99.4246 47.4566 97.4813C47.4566 69.3263 28.7203 45.5347 3.01806 37.892C1.15389 37.3377 0.0924401 35.3785 0.647234 33.5159C1.20203 31.6533 3.16298 30.5928 5.02714 31.1471Z" fill="black"></path>
<path fill-rule="evenodd" clip-rule="evenodd" d="M4.75552 12.0876C43.5425 20.9377 72.5 55.8124 72.5 97.4968C72.5 99.4316 70.9402 101 69.0162 101C67.0921 101 65.5323 99.4316 65.5323 97.4968C65.5323 59.1557 38.8967 27.0621 3.21367 18.9203C1.3373 18.4921 0.16136 16.6155 0.587134 14.7287C1.0129 12.8419 2.87916 11.6595 4.75552 12.0876Z" fill="black"></path>
<path fill-rule="evenodd" clip-rule="evenodd" d="M41.2141 -1.43631e-07C43.0289 -6.43059e-08 44.5 1.5786 44.5 3.5259C44.5 7.95842 43.9674 12.2627 42.9653 16.3668C42.5054 18.2506 40.7094 19.3775 38.9539 18.884C37.1984 18.3905 36.1482 16.4634 36.6081 14.5796C37.4689 11.0539 37.9282 7.35008 37.9282 3.5259C37.9282 1.5786 39.3993 -2.22957e-07 41.2141 -1.43631e-07Z" fill="black"></path>
<path fill-rule="evenodd" clip-rule="evenodd" d="M59.9398 -1.55623e-07C61.906 -6.96748e-08 63.5 1.586 63.5 3.54243C63.5 12.8219 61.6747 21.686 58.3587 29.7921C57.6175 31.6042 55.5402 32.4753 53.719 31.7377C51.8978 31.0001 51.0224 28.9332 51.7636 27.1212C54.7386 19.8486 56.3795 11.8906 56.3795 3.54243C56.3795 1.586 57.9735 -2.41571e-07 59.9398 -1.55623e-07Z" fill="black"></path>
<path fill-rule="evenodd" clip-rule="evenodd" d="M78.9148 -1.56714e-07C80.8948 -7.01634e-08 82.5 1.57266 82.5 3.51263C82.5 18.998 78.4059 33.557 71.2177 46.1965C70.2539 47.8911 68.0705 48.4994 66.3408 47.5552C64.6111 46.6109 63.9902 44.4717 64.954 42.777C71.5629 31.1562 75.3296 17.7706 75.3296 3.51263C75.3296 1.57266 76.9347 -2.43265e-07 78.9148 -1.56714e-07Z" fill="black"></path>
</svg>
