<?xml version="1.0" encoding="utf-8"?>
<!-- Generator: Adobe Illustrator 26.5.0, SVG Export Plug-In . SVG Version: 6.00 Build 0)  -->
<svg version="1.1" id="Layer_1" xmlns="http://www.w3.org/2000/svg" xmlns:xlink="http://www.w3.org/1999/xlink" x="0px" y="0px" viewBox="0 0 200 51.8" style="enable-background: new 0 0 200 51.8" xml:space="preserve">
<style>.st0 {
  fill: #fff;
}
</style>
<g id="Group_895" transform="translate(111.15 524.015)">
	<path id="Path_1681" class="st0" d="M-100.6-522.6l8.5,24.7l8.3-24.7h9.8l-14.6,36.7H-96l-14.6-36.7H-100.6z"></path>
	<path id="Path_1682" class="st0" d="M-52-491.7c5.3,0,10.2-2.8,12.9-7.3c1.8-2.3,4.1-2.8,5.8-1.5c1.7,1.6,1.8,4.3,0.2,6
		c-0.1,0.1-0.1,0.1-0.2,0.2c-4.2,6.2-11.2,10-18.8,10.1c-8.8-0.2-16.8-5.1-21.1-12.8c-1.4-1.6-1.3-4.1,0.3-5.5
		c0.1,0,0.1-0.1,0.2-0.1c1.9-1.1,4.4-0.5,5.5,1.4c0.1,0.1,0.1,0.2,0.1,0.3C-63.9-495.6-58.3-492.1-52-491.7z M-40.5-512.2
		c0,2.8-2.2,5-5,5c-2.8,0-5-2.2-5-5c0-2.8,2.2-5,5-5c0,0,0,0,0,0C-42.8-517.1-40.6-514.9-40.5-512.2L-40.5-512.2z"></path>
	<path id="Path_1683" class="st0" d="M-17.1-522.6v5c2.7-3.9,7.2-6.1,12-6c7.1,0,15.4,6,15.4,18.8c0,13.4-8,19.9-16.3,19.9
		c-4.5,0.1-8.7-2.1-11.3-5.8v17.6h-9v-49.5H-17.1z M-17.1-504.4c0,7.5,4.3,11.5,9.1,11.5c4.6,0,9.3-3.7,9.3-11.5
		c0-7.6-4.6-11.3-9.3-11.3S-17.1-512.2-17.1-504.4L-17.1-504.4z"></path>
	<path id="Path_1684" class="st0" d="M26-522.6v5c2.7-3.9,7.2-6.1,12-6c7.1,0,15.4,6,15.4,18.8c0,13.4-8,19.9-16.3,19.9
		c-4.5,0.1-8.7-2.1-11.3-5.8v17.6h-9v-49.5H26z M26-504.4c0,7.5,4.3,11.5,9.1,11.5c4.6,0,9.3-3.7,9.3-11.5c0-7.6-4.6-11.3-9.3-11.3
		C30.3-515.7,26-512.2,26-504.4L26-504.4z"></path>
	<path id="Path_1685" class="st0" d="M72.5-523.6c7.5,0,12.8,3.5,15.1,12.1l-8.1,1.3c-0.2-4.3-2.8-5.8-6.8-5.8c-3,0-5.3,1.3-5.3,3.5
		c0,1.7,1.2,3.3,4.6,4l6.1,1.2c5.3,0.6,9.4,5.1,9.3,10.5c0,8-7.1,12-13.9,12c-7.1,0-15.1-3.7-16.3-12.6l8.1-1.3
		c0.5,4.6,3.3,6.3,8,6.3c3.5,0,5.8-1.3,5.8-3.5c0-2-1.2-3.5-5-4.1l-5.6-1c-5.4-0.6-9.6-5.2-9.6-10.6
		C59.1-520.1,66.5-523.6,72.5-523.6z"></path>
</g>
</svg>
