<?xml version="1.0" encoding="utf-8"?>
<!-- Generator: Adobe Illustrator 26.5.0, SVG Export Plug-In . SVG Version: 6.00 Build 0)  -->
<svg version="1.1" id="Layer_1" xmlns="http://www.w3.org/2000/svg" xmlns:xlink="http://www.w3.org/1999/xlink" x="0px" y="0px" viewBox="0 0 200 157.2" style="enable-background: new 0 0 200 157.2" xml:space="preserve">
<style>.st0 {
  fill: #fff;
}
</style>
<g>
	<path class="st0" d="M36.5,155.5v-10.2c0-3.9-2.5-6.5-6.4-6.5c-2.1,0-4.2,0.6-5.7,2.9c-1.1-1.8-2.9-2.9-5.4-2.9
		c-1.7,0-3.4,0.5-4.8,2.4v-2h-3.6v16.3h3.6v-9c0-2.8,1.6-4.3,4-4.3c2.4,0,3.6,1.5,3.6,4.3v9.1h3.6v-9c0-2.8,1.6-4.3,4-4.3
		c2.4,0,3.6,1.5,3.6,4.3v9.1H36.5z M89.6,139.1h-5.8v-5h-3.6v5h-3.3v3.2h3.3v7.4c0,3.8,1.5,6,5.7,6c1.5,0,3.3-0.5,4.4-1.3l-1-3
		c-1.1,0.6-2.2,0.9-3.1,0.9c-1.8,0-2.4-1.1-2.4-2.7v-7.4h5.8V139.1z M119.9,138.7c-2,0-3.4,1-4.3,2.4v-2H112v16.3h3.6v-9.2
		c0-2.7,1.2-4.2,3.5-4.2c0.7,0,1.5,0.1,2.2,0.4l1.1-3.3C121.6,138.9,120.6,138.7,119.9,138.7L119.9,138.7z M74.1,140.4
		c-1.7-1.1-4.1-1.7-6.7-1.7c-4.1,0-6.8,2-6.8,5.2c0,2.7,2,4.3,5.6,4.8l1.7,0.2c1.9,0.3,2.9,0.8,2.9,1.7c0,1.3-1.3,2-3.7,2
		c-2.5,0-4.2-0.8-5.4-1.7l-1.7,2.8c1.9,1.4,4.4,2.1,7.1,2.1c4.7,0,7.4-2.2,7.4-5.3c0-2.9-2.2-4.4-5.7-4.9l-1.7-0.2
		c-1.5-0.2-2.8-0.5-2.8-1.6c0-1.2,1.2-1.9,3.1-1.9c2.1,0,4.1,0.8,5.1,1.4L74.1,140.4z M169.2,138.7c-2,0-3.4,1-4.3,2.4v-2h-3.5v16.3
		h3.6v-9.2c0-2.7,1.2-4.2,3.5-4.2c0.7,0,1.5,0.1,2.2,0.4l1.1-3.3C170.9,138.9,169.9,138.7,169.2,138.7L169.2,138.7z M123.4,147.3
		c0,5,3.4,8.6,8.7,8.6c2.5,0,4.1-0.5,5.9-1.9l-1.7-2.9c-1.3,1-2.7,1.5-4.3,1.5c-2.8,0-4.9-2.1-4.9-5.2c0-3.1,2.1-5.2,4.9-5.2
		c1.5,0,2.9,0.5,4.3,1.5l1.7-2.9c-1.8-1.4-3.4-1.9-5.9-1.9C126.9,138.7,123.4,142.3,123.4,147.3L123.4,147.3z M156.7,147.3v-8.2
		h-3.6v2c-1.1-1.5-2.8-2.4-5.2-2.4c-4.6,0-8.2,3.6-8.2,8.6c0,5,3.6,8.6,8.2,8.6c2.3,0,4-0.9,5.2-2.4v2h3.6V147.3z M143.5,147.3
		c0-2.9,1.9-5.2,5-5.2c2.9,0,4.9,2.3,4.9,5.2c0,3-2,5.2-4.9,5.2C145.4,152.5,143.5,150.2,143.5,147.3L143.5,147.3z M100.6,138.7
		c-4.8,0-8.1,3.5-8.1,8.6c0,5.2,3.5,8.6,8.4,8.6c2.5,0,4.7-0.6,6.7-2.3l-1.7-2.6c-1.4,1.1-3.1,1.7-4.7,1.7c-2.3,0-4.4-1.1-4.9-4
		h12.1c0-0.4,0.1-0.9,0.1-1.4C108.4,142.2,105.2,138.7,100.6,138.7L100.6,138.7z M100.6,141.9c2.3,0,3.8,1.4,4.1,4h-8.5
		C96.6,143.5,98,141.9,100.6,141.9L100.6,141.9z M189.6,147.3v-14.7h-3.6v8.5c-1.1-1.5-2.8-2.4-5.2-2.4c-4.6,0-8.2,3.6-8.2,8.6
		c0,5,3.6,8.6,8.2,8.6c2.3,0,4-0.9,5.2-2.4v2h3.6V147.3z M176.4,147.3c0-2.9,1.9-5.2,5-5.2c2.9,0,4.9,2.3,4.9,5.2c0,3-2,5.2-4.9,5.2
		C178.3,152.5,176.4,150.2,176.4,147.3L176.4,147.3z M56.5,147.3v-8.2H53v2c-1.1-1.5-2.8-2.4-5.2-2.4c-4.6,0-8.2,3.6-8.2,8.6
		c0,5,3.6,8.6,8.2,8.6c2.3,0,4-0.9,5.2-2.4v2h3.6V147.3z M43.3,147.3c0-2.9,1.9-5.2,5-5.2c2.9,0,4.9,2.3,4.9,5.2c0,3-2,5.2-4.9,5.2
		C45.2,152.5,43.3,150.2,43.3,147.3z M195.6,153.1c0.2,0,0.4,0,0.6,0.1c0.2,0.1,0.4,0.2,0.5,0.3c0.1,0.1,0.3,0.3,0.4,0.5
		c0.1,0.2,0.1,0.4,0.1,0.6c0,0.2,0,0.4-0.1,0.6c-0.1,0.2-0.2,0.4-0.4,0.5c-0.1,0.1-0.3,0.3-0.5,0.3c-0.2,0.1-0.4,0.1-0.6,0.1
		c-0.2,0-0.5,0-0.7-0.1c-0.2-0.1-0.4-0.2-0.5-0.3c-0.1-0.1-0.3-0.3-0.4-0.5c-0.1-0.2-0.1-0.4-0.1-0.6c0-0.2,0-0.4,0.1-0.6
		c0.1-0.2,0.2-0.4,0.4-0.5c0.1-0.1,0.3-0.3,0.5-0.3C195.1,153.1,195.3,153.1,195.6,153.1z M195.6,156c0.2,0,0.3,0,0.5-0.1
		c0.2-0.1,0.3-0.2,0.4-0.3c0.1-0.1,0.2-0.2,0.3-0.4c0.1-0.2,0.1-0.3,0.1-0.5c0-0.2,0-0.3-0.1-0.5c-0.1-0.2-0.2-0.3-0.3-0.4
		c-0.1-0.1-0.2-0.2-0.4-0.3c-0.2-0.1-0.3-0.1-0.5-0.1c-0.2,0-0.3,0-0.5,0.1c-0.2,0.1-0.3,0.2-0.4,0.3c-0.1,0.1-0.2,0.2-0.3,0.4
		c-0.1,0.2-0.1,0.3-0.1,0.5c0,0.2,0,0.3,0.1,0.5c0.1,0.2,0.2,0.3,0.3,0.4c0.1,0.1,0.2,0.2,0.4,0.3C195.2,155.9,195.4,156,195.6,156z
		 M195.7,154c0.2,0,0.3,0,0.4,0.1c0.1,0.1,0.2,0.2,0.2,0.4c0,0.1,0,0.2-0.1,0.3c-0.1,0.1-0.2,0.1-0.4,0.1l0.5,0.6h-0.4l-0.5-0.6
		h-0.1v0.6H195V154H195.7z M195.3,154.2v0.4h0.4c0.1,0,0.2,0,0.2-0.1c0.1,0,0.1-0.1,0.1-0.2c0-0.1,0-0.1-0.1-0.1c-0.1,0-0.1,0-0.2,0
		H195.3z M193.4,101.2v-2h0.8v-0.4h-2v0.4h0.8v2H193.4z M197.3,101.2v-2.4h-0.6l-0.7,1.6l-0.7-1.6h-0.6v2.4h0.4v-1.8l0.7,1.6h0.5
		l0.7-1.6v1.8H197.3z M94.3,113c0.5,0.4,1,0.8,1.5,1.2c-9.7,6.5-21.4,10.3-34,10.3C27.9,124.5,0.3,97,0.3,63.1S27.9,1.6,61.8,1.6
		c12.6,0,24.3,3.8,34,10.3c-0.5,0.4-1,0.8-1.5,1.2c-14.5,12.6-22.8,30.8-22.8,50C71.6,82.2,79.9,100.4,94.3,113z M137.8,1.6
		c-12.6,0-24.3,3.8-34,10.3c0.5,0.4,1,0.8,1.5,1.2c14.5,12.6,22.8,30.8,22.8,50c0,19.2-8.3,37.4-22.8,50c-0.5,0.4-1,0.8-1.5,1.2
		c9.7,6.5,21.4,10.3,34,10.3c33.9,0,61.5-27.5,61.5-61.5C199.2,29.1,171.7,1.6,137.8,1.6z M99.8,14.8c-0.8,0.6-1.6,1.3-2.3,1.9
		C84.5,28,76.3,44.6,76.3,63.1c0,18.5,8.2,35.1,21.2,46.4c0.8,0.7,1.5,1.3,2.3,1.9c0.8-0.6,1.6-1.3,2.3-1.9
		c13-11.3,21.2-27.9,21.2-46.4c0-18.5-8.2-35.1-21.2-46.4C101.4,16,100.6,15.4,99.8,14.8"></path>
</g>
</svg>
