<?xml version="1.0" encoding="utf-8"?>
<!-- Generator: Adobe Illustrator 26.5.0, SVG Export Plug-In . SVG Version: 6.00 Build 0)  -->
<svg version="1.1" id="Layer_1" xmlns="http://www.w3.org/2000/svg" xmlns:xlink="http://www.w3.org/1999/xlink" x="0px" y="0px" viewBox="0 0 200 65.9" style="enable-background: new 0 0 200 65.9" xml:space="preserve">
<style>.st0 {
  fill: #fff;
}
</style>
<g id="Group_28" transform="translate(220.801 523.37)">
	<g id="Group_27" transform="translate(-0.001 0.001)">
		<path id="Path_33" class="st0" d="M-134.2-459.3h-16.2l9.9-62.2h16.2L-134.2-459.3z"></path>
		<path id="Path_34" class="st0" d="M-163.9-521.5l-15.3,42.8l-1.8-9l0,0l-5.4-27.9c0,0-0.5-5.4-7.7-5.4h-25.7l-0.5,0.9
			c6,1.6,11.8,4.1,17.1,7.2l14,54.1h16.7l25.7-62.6H-163.9z"></path>
		<path id="Path_35" class="st0" d="M-36.9-459.3H-22l-13.1-62.2h-13.1c-3.2-0.2-6.2,1.6-7.7,4.5l-23.9,57.2H-63l3.2-9h20.7
			L-36.9-459.3z M-54.9-481.4l8.6-23.4l5,23.4H-54.9z"></path>
		<path id="Path_36" class="st0" d="M-78.3-506.6l2.3-13.5c-4.6-1.6-9.5-2.6-14.4-2.7c-8.1,0-27,3.6-27,20.7
			c0,16.2,22.5,16.2,22.5,24.8s-19.8,6.8-26.6,1.8l-2.3,14c5.7,2.5,11.8,3.7,18,3.6c10.8,0,27.5-5.9,27.5-21.2
			c0-16.2-22.5-17.6-22.5-24.8S-85.1-510.2-78.3-506.6z"></path>
	</g>
	<path id="Path_37" class="st0" d="M-181.1-487.7l-5.4-27.9c0,0-0.5-5.4-7.7-5.4h-25.7l-0.5,0.9c8.7,2.3,16.9,6.5,23.9,12.2
		C-189.6-502.7-184.3-495.7-181.1-487.7z"></path>
</g>
</svg>
