<svg width="101" height="67" viewBox="0 0 101 67" fill="none" xmlns="http://www.w3.org/2000/svg">
<path fill-rule="evenodd" clip-rule="evenodd" d="M38.9919 62.8917C46.4876 37.6839 69.8166 19.297 97.4447 19.297C99.1571 19.297 100.545 20.6864 100.545 22.4002C100.545 24.1141 99.1571 25.5035 97.4447 25.5035C72.6349 25.5035 51.6701 42.0137 44.9355 64.6621C44.447 66.3048 42.7205 67.2401 41.0793 66.7513C39.438 66.2624 38.5035 64.5344 38.9919 62.8917Z" fill="black"></path>
<path fill-rule="evenodd" clip-rule="evenodd" d="M22.1973 63.1312C29.9959 28.9527 60.727 3.43579 97.4587 3.43579C99.1635 3.43579 100.546 4.81023 100.546 6.50569C100.546 8.20116 99.1635 9.5756 97.4587 9.5756C63.673 9.5756 35.3926 33.0465 28.2182 64.4899C27.8409 66.1433 26.1872 67.1795 24.5246 66.8044C22.862 66.4292 21.8201 64.7847 22.1973 63.1312Z" fill="black"></path>
<path fill-rule="evenodd" clip-rule="evenodd" d="M3.23606 39.9985C3.09382 38.4057 4.36404 36.9908 6.07317 36.8381C9.96357 36.4907 13.7832 36.6209 17.4638 37.1787C19.1532 37.4347 20.2831 38.9227 19.9876 40.5022C19.692 42.0816 18.0829 43.1545 16.3935 42.8985C13.2315 42.4192 9.94471 42.3064 6.58825 42.6062C4.87912 42.7588 3.37829 41.5913 3.23606 39.9985Z" fill="black"></path>
<path fill-rule="evenodd" clip-rule="evenodd" d="M1.7683 23.563C1.61419 21.8373 2.88128 20.3139 4.59842 20.1606C12.7429 19.4333 20.6659 20.3406 28.0405 22.6156C29.6891 23.1242 30.6164 24.8792 30.1118 26.5354C29.6072 28.1917 27.8617 29.122 26.2132 28.6135C19.5969 26.5723 12.4836 25.7559 5.15651 26.4102C3.43937 26.5635 1.92241 25.2888 1.7683 23.563Z" fill="black"></path>
<path fill-rule="evenodd" clip-rule="evenodd" d="M0.281001 6.90879C0.125808 5.17091 1.38031 3.63882 3.08301 3.48677C16.6744 2.27306 29.7736 4.72531 41.4306 10.0437C42.9935 10.7568 43.6986 12.6255 43.0054 14.2176C42.3122 15.8098 40.4832 16.5224 38.9203 15.8093C28.2028 10.9195 16.1592 8.66267 3.64501 9.78019C1.94231 9.93224 0.436194 8.64667 0.281001 6.90879Z" fill="black"></path>
</svg>
